<?xml version="1.0" encoding="utf-8"?>
<!-- Generator: Adobe Illustrator 13.0.0, SVG Export Plug-In . SVG Version: 6.00 Build 14948)  -->
<!DOCTYPE svg PUBLIC "-//W3C//DTD SVG 1.1//EN" "http://www.w3.org/Graphics/SVG/1.1/DTD/svg11.dtd">
<svg version="1.1" id="Layer_2" xmlns="http://www.w3.org/2000/svg" xmlns:xlink="http://www.w3.org/1999/xlink" x="0px" y="0px"
	 width="12.137px" height="12.659px" viewBox="0 0 12.137 12.659" enable-background="new 0 0 12.137 12.659" xml:space="preserve">
<path fill-rule="evenodd" clip-rule="evenodd" fill="#7E91AA" d="M4.053,0c0.66,0,1.319,0,1.978,0
	c3.463,0.375,5.454,5.342,3.065,8.308c0.491,0.661,1.069,1.354,1.681,1.978c0.544,0.555,1.656,1.065,1.286,2.176
	c-0.087,0.044-0.177,0.087-0.197,0.198c-0.264,0-0.527,0-0.791,0c-1.118-1.059-1.997-2.355-3.264-3.264
	c-0.895,0.64-1.686,0.897-2.868,0.89C-1.021,10.242-1.911,1.149,4.053,0z M4.25,8.803c3.138,0.573,4.904-2.343,4.451-4.55
	C8.31,2.348,6.288,1.249,4.547,1.483C0.353,2.05,0.416,8.1,4.25,8.803z"/>
</svg>
