<?xml version="1.0" standalone="no"?>
<!DOCTYPE svg PUBLIC "-//W3C//DTD SVG 20010904//EN"
 "http://www.w3.org/TR/2001/REC-SVG-20010904/DTD/svg10.dtd">
<svg version="1.0" xmlns="http://www.w3.org/2000/svg"
 width="417.000000pt" height="417.000000pt" viewBox="0 0 417.000000 417.000000"
 preserveAspectRatio="xMidYMid meet">
<metadata>
Created by potrace 1.11, written by Peter Selinger 2001-2013
</metadata>
<g transform="translate(0.000000,417.000000) scale(0.100000,-0.100000)"
fill="#000000" stroke="none">
<path d="M395 4142 c-183 -62 -319 -203 -374 -387 l-21 -70 2 -1620 3 -1620
29 -70 c75 -180 204 -300 384 -355 63 -20 102 -20 1669 -20 l1604 0 75 25
c194 65 339 218 389 412 22 83 22 3219 1 3301 -51 189 -184 336 -366 403 l-65
24 -1625 2 -1625 3 -80 -28z"/>
</g>
</svg>
